<svg xmlns="http://www.w3.org/2000/svg" viewBox="0 0 256 256">
  <path
    fill="#e6b891"
    d="M80 8h96c39.8 0 72 32.2 72 72v96c0 39.8-32.2 72-72 72H28c-11 0-20-9-20-20V80C8 40.2 40.2 8 80 8Z"
  />
  <g
    fill="none"
    stroke="#0f302c"
    stroke-linecap="round"
    stroke-linejoin="round"
    stroke-width="14"
    transform="translate(41.6 41.6) scale(7.2)"
  >
    <path d="M21.42 10.922a1 1 0 0 0-.019-1.838L12.83 5.18a2 2 0 0 0-1.66 0L2.6 9.08a1 1 0 0 0 0 1.832l8.57 3.908a2 2 0 0 0 1.66 0z" vector-effect="non-scaling-stroke" />
    <path d="M22 10v6" vector-effect="non-scaling-stroke" />
    <path d="M6 12.5V16a6 3 0 0 0 12 0v-3.5" vector-effect="non-scaling-stroke" />
  </g>
</svg>
